<mxfile host="app.diagrams.net" modified="2020-09-23T06:27:28.592Z" agent="5.0 (Windows NT 10.0; WOW64) AppleWebKit/537.36 (KHTML, like Gecko) Chrome/72.0.3626.81 Safari/537.36 SE 2.X MetaSr 1.0" etag="ixJByzM0VRMfQD8CUckD" version="13.7.4" type="github">
  <diagram id="eYSkx2LJvKrCo4WpQNRT" name="Page-1">
    <mxGraphModel dx="2631" dy="715" grid="1" gridSize="10" guides="1" tooltips="1" connect="1" arrows="1" fold="1" page="1" pageScale="1" pageWidth="827" pageHeight="1169" math="0" shadow="0">
      <root>
        <mxCell id="0" />
        <mxCell id="1" parent="0" />
        <mxCell id="s6jZhK4aSyIVaHcbw-Tm-45" value="" style="rounded=1;whiteSpace=wrap;html=1;fillColor=none;dashed=1;" vertex="1" parent="1">
          <mxGeometry x="-669" y="552" width="204" height="100" as="geometry" />
        </mxCell>
        <mxCell id="s6jZhK4aSyIVaHcbw-Tm-35" style="edgeStyle=orthogonalEdgeStyle;rounded=0;orthogonalLoop=1;jettySize=auto;html=1;entryX=0;entryY=0.5;entryDx=0;entryDy=0;" edge="1" parent="1" source="s6jZhK4aSyIVaHcbw-Tm-1" target="s6jZhK4aSyIVaHcbw-Tm-2">
          <mxGeometry relative="1" as="geometry" />
        </mxCell>
        <mxCell id="s6jZhK4aSyIVaHcbw-Tm-1" value="&lt;p style=&quot;line-height: normal ; margin-top: 0pt ; margin-bottom: 0pt ; margin-left: 0in ; text-align: left ; direction: ltr ; unicode-bidi: embed ; word-break: normal&quot;&gt;&lt;span style=&quot;font-size: 12pt ; font-family: &amp;#34;calibri&amp;#34;&quot;&gt;Key Word&lt;/span&gt;&lt;/p&gt;" style="rounded=1;whiteSpace=wrap;html=1;fontSize=12;glass=0;strokeWidth=1;shadow=0;fillColor=#fff2cc;strokeColor=#d6b656;" vertex="1" parent="1">
          <mxGeometry x="-1130" y="180" width="138" height="50" as="geometry" />
        </mxCell>
        <mxCell id="s6jZhK4aSyIVaHcbw-Tm-2" value="&lt;p style=&quot;margin-top: 0pt ; margin-bottom: 0pt ; margin-left: 0in ; text-align: left ; direction: ltr ; unicode-bidi: embed ; word-break: normal&quot;&gt;&lt;font face=&quot;calibri&quot;&gt;&lt;span style=&quot;font-size: 16px&quot;&gt;Item&lt;/span&gt;&lt;/font&gt;&lt;/p&gt;" style="rounded=1;whiteSpace=wrap;html=1;fontSize=12;glass=0;strokeWidth=1;shadow=0;fillColor=#fff2cc;strokeColor=#d6b656;" vertex="1" parent="1">
          <mxGeometry x="-647.5" y="180" width="147.5" height="50" as="geometry" />
        </mxCell>
        <mxCell id="s6jZhK4aSyIVaHcbw-Tm-6" value="&lt;font face=&quot;calibri&quot;&gt;&lt;span style=&quot;font-size: 16px&quot;&gt;Text Matching Embedding model&lt;/span&gt;&lt;/font&gt;" style="shape=parallelogram;perimeter=parallelogramPerimeter;whiteSpace=wrap;html=1;fixedSize=1;fontColor=#000000;" vertex="1" parent="1">
          <mxGeometry x="-940" y="170" width="250" height="52.5" as="geometry" />
        </mxCell>
        <mxCell id="s6jZhK4aSyIVaHcbw-Tm-9" value="Recall" style="text;html=1;strokeColor=none;fillColor=none;align=center;verticalAlign=middle;whiteSpace=wrap;rounded=0;fontStyle=1;fontColor=#EA6B66;fontSize=15;" vertex="1" parent="1">
          <mxGeometry x="-681.5" y="150" width="159" height="20" as="geometry" />
        </mxCell>
        <mxCell id="s6jZhK4aSyIVaHcbw-Tm-10" value="Rank" style="text;html=1;strokeColor=none;fillColor=none;align=center;verticalAlign=middle;whiteSpace=wrap;rounded=0;fontStyle=1;fontColor=#EA6B66;fontSize=15;" vertex="1" parent="1">
          <mxGeometry x="-647.5" y="330" width="87.5" height="20" as="geometry" />
        </mxCell>
        <mxCell id="s6jZhK4aSyIVaHcbw-Tm-40" style="edgeStyle=orthogonalEdgeStyle;rounded=0;orthogonalLoop=1;jettySize=auto;html=1;entryX=0;entryY=0.5;entryDx=0;entryDy=0;" edge="1" parent="1" source="s6jZhK4aSyIVaHcbw-Tm-12" target="s6jZhK4aSyIVaHcbw-Tm-18">
          <mxGeometry relative="1" as="geometry" />
        </mxCell>
        <mxCell id="s6jZhK4aSyIVaHcbw-Tm-12" value="&lt;p style=&quot;line-height: normal ; margin-top: 0pt ; margin-bottom: 0pt ; margin-left: 0in ; text-align: left ; direction: ltr ; unicode-bidi: embed ; word-break: normal&quot;&gt;&lt;span style=&quot;font-size: 12pt ; font-family: &amp;#34;calibri&amp;#34;&quot;&gt;Item Feature&lt;/span&gt;&lt;/p&gt;&lt;p style=&quot;line-height: normal ; margin-top: 0pt ; margin-bottom: 0pt ; margin-left: 0in ; text-align: left ; direction: ltr ; unicode-bidi: embed ; word-break: normal&quot;&gt;&lt;span style=&quot;font-family: &amp;#34;calibri&amp;#34; ; font-size: 16px&quot;&gt;User Feature&lt;/span&gt;&lt;span style=&quot;font-size: 12pt ; font-family: &amp;#34;calibri&amp;#34;&quot;&gt;&lt;br&gt;&lt;/span&gt;&lt;/p&gt;&lt;p style=&quot;line-height: normal ; margin-top: 0pt ; margin-bottom: 0pt ; margin-left: 0in ; text-align: left ; direction: ltr ; unicode-bidi: embed ; word-break: normal&quot;&gt;&lt;span style=&quot;font-family: &amp;#34;calibri&amp;#34; ; font-size: 16px&quot;&gt;User-Item behavior&lt;/span&gt;&lt;span style=&quot;font-family: &amp;#34;calibri&amp;#34; ; font-size: 16px&quot;&gt;&lt;br&gt;&lt;/span&gt;&lt;/p&gt;" style="rounded=1;whiteSpace=wrap;html=1;fontSize=12;glass=0;strokeWidth=1;shadow=0;fillColor=#fff2cc;strokeColor=#d6b656;" vertex="1" parent="1">
          <mxGeometry x="-1130" y="357.5" width="138" height="58.76" as="geometry" />
        </mxCell>
        <mxCell id="s6jZhK4aSyIVaHcbw-Tm-42" style="edgeStyle=orthogonalEdgeStyle;rounded=0;orthogonalLoop=1;jettySize=auto;html=1;entryX=0;entryY=0.5;entryDx=0;entryDy=0;" edge="1" parent="1" source="s6jZhK4aSyIVaHcbw-Tm-14" target="s6jZhK4aSyIVaHcbw-Tm-20">
          <mxGeometry relative="1" as="geometry" />
        </mxCell>
        <mxCell id="s6jZhK4aSyIVaHcbw-Tm-14" value="&lt;p style=&quot;line-height: normal ; margin-top: 0pt ; margin-bottom: 0pt ; margin-left: 0in ; text-align: left ; direction: ltr ; unicode-bidi: embed ; word-break: normal&quot;&gt;&lt;span style=&quot;font-family: &amp;#34;calibri&amp;#34; ; font-size: 16px&quot;&gt;Item Vector&lt;/span&gt;&lt;br&gt;&lt;/p&gt;" style="rounded=1;whiteSpace=wrap;html=1;fontSize=12;glass=0;strokeWidth=1;shadow=0;fillColor=#fff2cc;strokeColor=#d6b656;" vertex="1" parent="1">
          <mxGeometry x="-1130" y="475.75" width="138" height="50" as="geometry" />
        </mxCell>
        <mxCell id="s6jZhK4aSyIVaHcbw-Tm-16" value="&lt;p style=&quot;margin-top: 0pt ; margin-bottom: 0pt ; margin-left: 0in ; text-align: left ; direction: ltr ; unicode-bidi: embed ; word-break: normal&quot;&gt;&lt;span style=&quot;font-family: &amp;#34;calibri&amp;#34; ; font-size: 16px&quot;&gt;Item&lt;/span&gt;&lt;br&gt;&lt;/p&gt;" style="rounded=1;whiteSpace=wrap;html=1;fontSize=12;glass=0;strokeWidth=1;shadow=0;fillColor=#fff2cc;strokeColor=#d6b656;" vertex="1" parent="1">
          <mxGeometry x="-647.5" y="247.5" width="147.5" height="50" as="geometry" />
        </mxCell>
        <mxCell id="s6jZhK4aSyIVaHcbw-Tm-18" value="&lt;p style=&quot;margin-top: 0pt ; margin-bottom: 0pt ; margin-left: 0in ; text-align: left ; direction: ltr ; unicode-bidi: embed ; word-break: normal&quot;&gt;&lt;font face=&quot;calibri&quot;&gt;&lt;span style=&quot;font-size: 16px&quot;&gt;Ranked Items&lt;/span&gt;&lt;/font&gt;&lt;/p&gt;" style="rounded=1;whiteSpace=wrap;html=1;fontSize=12;glass=0;strokeWidth=1;shadow=0;fillColor=#fff2cc;strokeColor=#d6b656;" vertex="1" parent="1">
          <mxGeometry x="-647.5" y="357.5" width="147.5" height="50" as="geometry" />
        </mxCell>
        <mxCell id="s6jZhK4aSyIVaHcbw-Tm-20" value="&lt;p style=&quot;margin-top: 0pt ; margin-bottom: 0pt ; margin-left: 0in ; text-align: left ; direction: ltr ; unicode-bidi: embed ; word-break: normal&quot;&gt;&lt;font face=&quot;calibri&quot;&gt;&lt;span style=&quot;font-size: 16px&quot;&gt;Related Items&lt;/span&gt;&lt;/font&gt;&lt;/p&gt;" style="rounded=1;whiteSpace=wrap;html=1;fontSize=12;glass=0;strokeWidth=1;shadow=0;fillColor=#fff2cc;strokeColor=#d6b656;" vertex="1" parent="1">
          <mxGeometry x="-645" y="475.75" width="147.5" height="50" as="geometry" />
        </mxCell>
        <mxCell id="s6jZhK4aSyIVaHcbw-Tm-22" value="Improve the performance" style="text;html=1;strokeColor=none;fillColor=none;align=center;verticalAlign=middle;whiteSpace=wrap;rounded=0;fontStyle=1;fontColor=#EA6B66;fontSize=15;" vertex="1" parent="1">
          <mxGeometry x="-672.5" y="552" width="212.5" height="20" as="geometry" />
        </mxCell>
        <mxCell id="s6jZhK4aSyIVaHcbw-Tm-23" value="&lt;p style=&quot;margin-top: 0pt ; margin-bottom: 0pt ; margin-left: 0in ; text-align: left ; direction: ltr ; unicode-bidi: embed ; word-break: normal&quot;&gt;&lt;font face=&quot;calibri&quot;&gt;&lt;span style=&quot;font-size: 16px&quot;&gt;TDM&lt;/span&gt;&lt;/font&gt;&lt;/p&gt;" style="rounded=1;whiteSpace=wrap;html=1;fontSize=12;glass=0;strokeWidth=1;shadow=0;fillColor=#fff2cc;strokeColor=#d6b656;" vertex="1" parent="1">
          <mxGeometry x="-647.5" y="588.26" width="150" height="50" as="geometry" />
        </mxCell>
        <mxCell id="s6jZhK4aSyIVaHcbw-Tm-28" value="" style="rounded=1;whiteSpace=wrap;html=1;fillColor=none;dashed=1;" vertex="1" parent="1">
          <mxGeometry x="-664" y="140" width="194" height="171.87" as="geometry" />
        </mxCell>
        <mxCell id="s6jZhK4aSyIVaHcbw-Tm-29" value="" style="rounded=1;whiteSpace=wrap;html=1;fillColor=none;dashed=1;" vertex="1" parent="1">
          <mxGeometry x="-664" y="330" width="204" height="100" as="geometry" />
        </mxCell>
        <mxCell id="s6jZhK4aSyIVaHcbw-Tm-39" style="edgeStyle=orthogonalEdgeStyle;rounded=0;orthogonalLoop=1;jettySize=auto;html=1;" edge="1" parent="1" source="s6jZhK4aSyIVaHcbw-Tm-30" target="s6jZhK4aSyIVaHcbw-Tm-16">
          <mxGeometry relative="1" as="geometry" />
        </mxCell>
        <mxCell id="s6jZhK4aSyIVaHcbw-Tm-30" value="&lt;p style=&quot;line-height: normal ; margin-top: 0pt ; margin-bottom: 0pt ; margin-left: 0in ; text-align: left ; direction: ltr ; unicode-bidi: embed ; word-break: normal&quot;&gt;&lt;span style=&quot;font-size: 12pt ; font-family: &amp;#34;calibri&amp;#34;&quot;&gt;Item&lt;/span&gt;&lt;/p&gt;&lt;p style=&quot;line-height: normal ; margin-top: 0pt ; margin-bottom: 0pt ; margin-left: 0in ; text-align: left ; direction: ltr ; unicode-bidi: embed ; word-break: normal&quot;&gt;&lt;span style=&quot;font-size: 12pt ; font-family: &amp;#34;calibri&amp;#34;&quot;&gt;Item Vector&lt;/span&gt;&lt;/p&gt;" style="rounded=1;whiteSpace=wrap;html=1;fontSize=12;glass=0;strokeWidth=1;shadow=0;fillColor=#fff2cc;strokeColor=#d6b656;" vertex="1" parent="1">
          <mxGeometry x="-1130" y="247.5" width="138" height="50" as="geometry" />
        </mxCell>
        <mxCell id="s6jZhK4aSyIVaHcbw-Tm-43" style="edgeStyle=orthogonalEdgeStyle;rounded=0;orthogonalLoop=1;jettySize=auto;html=1;entryX=0;entryY=0.5;entryDx=0;entryDy=0;" edge="1" parent="1" source="s6jZhK4aSyIVaHcbw-Tm-31" target="s6jZhK4aSyIVaHcbw-Tm-23">
          <mxGeometry relative="1" as="geometry" />
        </mxCell>
        <mxCell id="s6jZhK4aSyIVaHcbw-Tm-31" value="&lt;p style=&quot;line-height: normal ; margin-top: 0pt ; margin-bottom: 0pt ; margin-left: 0in ; text-align: left ; direction: ltr ; unicode-bidi: embed ; word-break: normal&quot;&gt;&lt;span style=&quot;font-size: 12pt ; font-family: &amp;#34;calibri&amp;#34;&quot;&gt;Item Feature&lt;/span&gt;&lt;/p&gt;&lt;p style=&quot;line-height: normal ; margin-top: 0pt ; margin-bottom: 0pt ; margin-left: 0in ; text-align: left ; direction: ltr ; unicode-bidi: embed ; word-break: normal&quot;&gt;&lt;span style=&quot;font-family: &amp;#34;calibri&amp;#34; ; font-size: 16px&quot;&gt;User Feature&lt;/span&gt;&lt;span style=&quot;font-size: 12pt ; font-family: &amp;#34;calibri&amp;#34;&quot;&gt;&lt;br&gt;&lt;/span&gt;&lt;/p&gt;&lt;p style=&quot;line-height: normal ; margin-top: 0pt ; margin-bottom: 0pt ; margin-left: 0in ; text-align: left ; direction: ltr ; unicode-bidi: embed ; word-break: normal&quot;&gt;&lt;span style=&quot;font-family: &amp;#34;calibri&amp;#34; ; font-size: 16px&quot;&gt;User-Item behavior&lt;/span&gt;&lt;/p&gt;" style="rounded=1;whiteSpace=wrap;html=1;fontSize=12;glass=0;strokeWidth=1;shadow=0;fillColor=#fff2cc;strokeColor=#d6b656;" vertex="1" parent="1">
          <mxGeometry x="-1130" y="583.89" width="138" height="58.75" as="geometry" />
        </mxCell>
        <mxCell id="s6jZhK4aSyIVaHcbw-Tm-33" value="Cluster" style="text;html=1;strokeColor=none;fillColor=none;align=center;verticalAlign=middle;whiteSpace=wrap;rounded=0;fontStyle=1;fontColor=#EA6B66;fontSize=15;" vertex="1" parent="1">
          <mxGeometry x="-640" y="440" width="87.5" height="20" as="geometry" />
        </mxCell>
        <mxCell id="s6jZhK4aSyIVaHcbw-Tm-5" value="&lt;span style=&quot;font-family: &amp;#34;calibri&amp;#34; ; font-size: 16px&quot;&gt;KNN / Product Similar to &lt;br&gt;Key Word Related Product&amp;nbsp;&lt;/span&gt;" style="shape=parallelogram;perimeter=parallelogramPerimeter;whiteSpace=wrap;html=1;fixedSize=1;fontColor=#000000;" vertex="1" parent="1">
          <mxGeometry x="-940" y="250" width="235" height="52.5" as="geometry" />
        </mxCell>
        <mxCell id="s6jZhK4aSyIVaHcbw-Tm-4" value="&lt;span style=&quot;font-family: &amp;#34;calibri&amp;#34; ; font-size: 16px&quot;&gt;CTR models&lt;/span&gt;" style="shape=parallelogram;perimeter=parallelogramPerimeter;whiteSpace=wrap;html=1;fixedSize=1;fontColor=#000000;" vertex="1" parent="1">
          <mxGeometry x="-940" y="348.74" width="235" height="52.5" as="geometry" />
        </mxCell>
        <mxCell id="s6jZhK4aSyIVaHcbw-Tm-3" value="&lt;span style=&quot;font-family: &amp;#34;calibri&amp;#34; ; font-size: 16px&quot;&gt;KNN / Similarity of Product Attributes&lt;/span&gt;" style="shape=parallelogram;perimeter=parallelogramPerimeter;whiteSpace=wrap;html=1;fixedSize=1;fontColor=#000000;" vertex="1" parent="1">
          <mxGeometry x="-940" y="475.75" width="215" height="52.5" as="geometry" />
        </mxCell>
        <mxCell id="s6jZhK4aSyIVaHcbw-Tm-15" value="&lt;span style=&quot;font-size: 12pt ; font-family: &amp;#34;calibri&amp;#34;&quot;&gt;TDM&lt;/span&gt;" style="shape=parallelogram;perimeter=parallelogramPerimeter;whiteSpace=wrap;html=1;fixedSize=1;fontColor=#000000;" vertex="1" parent="1">
          <mxGeometry x="-950" y="585.76" width="215" height="52.5" as="geometry" />
        </mxCell>
        <mxCell id="s6jZhK4aSyIVaHcbw-Tm-44" value="" style="rounded=1;whiteSpace=wrap;html=1;fillColor=none;dashed=1;" vertex="1" parent="1">
          <mxGeometry x="-664" y="440" width="204" height="100" as="geometry" />
        </mxCell>
      </root>
    </mxGraphModel>
  </diagram>
</mxfile>
